<svg xmlns="http://www.w3.org/2000/svg" viewBox="0 0 800 1000" width="1280" height="640">
  <defs>
    <style type="text/css">
      @import url('https://fonts.googleapis.com/css2?family=Pacifico');
    </style>
  </defs>
  <path
    d="
      M 150 100
      L 650 100
      A 100 100 0 0 1 750 250
      L 750 250
      L 750 650
      A 100 100 0 0 1 650 750
      L 650 750
      L 150 750
      A 100 100 0 0 1 50 650
      L 50 650
      L 50 250
      A 100 100 0 0 1 150 100
      L 150 100
      Z
      M 180 50
      L 180 170
      M 326 50
      L 326 170
      M 473 50
      L 473 170
      M 620 50
      L 620 170
    "
    stroke-width="50"
    stroke="#2d3748"
    fill="#faf089"
    stroke-linecap="round"
    stroke-linejoin="round"
  ></path>
  <path
    stroke-width="50"
    stroke="#2d3748"
    d="
      M 200 500
      Q 400 550 600 500
      Q 600 650 400 650
      Q 200 650 200 500
      Z
    "
    fill="#2d3748"
    stroke-linecap="round"
    stroke-linejoin="round"
  ></path>
  <path
    stroke-width="50"
    stroke="#2d3748"
    fill="none"
    d="
      M 253 360 Q 233 380, 253 405 T 253 450
      M 400 360 Q 380 380, 400 405 T 400 450
      M 546 360 Q 526 380, 546 405 T 546 450
    "
    stroke-linecap="round"
    stroke-linejoin="round"
  ></path>

  <path transform="translate(39, 788)" fill="#2d3748" d="M 103.46 119.983 L 103.04 123.343 A 128.407 128.407 0 0 1 99.93 138.817 Q 95.558 154.954 87.43 164.153 A 38.731 38.731 0 0 1 73.485 174.427 A 38.667 38.667 0 0 1 58.24 177.383 A 38.26 38.26 0 0 1 51.18 176.772 Q 47.18 176.02 44.037 174.342 A 19.446 19.446 0 0 1 40.25 171.713 A 18.38 18.38 0 0 1 33.905 158.313 A 23.637 23.637 0 0 1 33.88 157.223 A 31.537 31.537 0 0 1 41.129 137.176 A 46.674 46.674 0 0 1 47.04 131.043 A 72.043 72.043 0 0 1 57.692 123.464 Q 69.209 116.639 86.393 110.924 A 232.382 232.382 0 0 1 86.94 110.743 L 89.74 91.003 Q 90.169 88.43 90.762 84.545 A 1002.608 1002.608 0 0 0 91.14 82.043 A 87.009 87.009 0 0 1 86.186 92.935 Q 83.135 98.518 79.531 102.762 A 42.987 42.987 0 0 1 74.34 107.943 A 36.687 36.687 0 0 1 62.27 114.789 A 34.123 34.123 0 0 1 51.52 116.483 A 31.509 31.509 0 0 1 44.237 115.691 A 20.304 20.304 0 0 1 33.18 109.133 A 25.624 25.624 0 0 1 27.527 97.169 A 36.25 36.25 0 0 1 26.88 90.163 Q 26.88 84.983 28 78.753 Q 28.858 73.983 30.454 66.628 A 764.961 764.961 0 0 1 31.5 61.883 Q 33.6 52.223 34.65 46.483 Q 35.553 41.55 35.679 37.548 A 40.557 40.557 0 0 0 35.7 36.263 Q 35.7 29.543 30.52 29.543 A 10.437 10.437 0 0 0 27.412 30.058 Q 24.473 30.976 20.93 33.533 A 38.443 38.443 0 0 0 16.717 37.104 Q 13.102 40.604 9.24 45.783 Q 8.007 47.457 6.607 48.077 A 4.169 4.169 0 0 1 4.9 48.443 A 3.875 3.875 0 0 1 2.348 47.477 A 6.042 6.042 0 0 1 1.47 46.553 Q 0 44.663 0 42.283 Q 0 39.126 2.074 35.376 A 29.323 29.323 0 0 1 3.92 32.483 Q 18.2 12.883 37.38 12.883 A 22.618 22.618 0 0 1 43.011 13.544 A 15.654 15.654 0 0 1 50.75 18.063 A 16.45 16.45 0 0 1 54.296 24.23 Q 55.134 26.771 55.425 29.866 A 36.924 36.924 0 0 1 55.58 33.323 A 86.166 86.166 0 0 1 54.431 47.161 A 95.227 95.227 0 0 1 54.25 48.233 Q 53.061 55.058 50.807 65.188 A 711.122 711.122 0 0 1 50.26 67.623 Q 48.58 74.623 47.74 78.893 Q 46.9 83.163 46.9 85.963 A 32.066 32.066 0 0 0 47.078 89.469 Q 47.57 93.921 49.42 96.183 A 7.354 7.354 0 0 0 52.414 98.315 Q 53.653 98.818 55.22 99.054 A 20.34 20.34 0 0 0 58.24 99.263 A 15.663 15.663 0 0 0 65.163 97.552 Q 67.538 96.391 69.945 94.442 A 39.517 39.517 0 0 0 73.71 90.933 Q 81.62 82.603 87.99 65.663 A 133.713 133.713 0 0 0 92.73 50.024 Q 94.663 42.023 96.032 32.828 A 255.148 255.148 0 0 0 97.16 24.223 A 27.565 27.565 0 0 1 97.696 21.05 Q 98.461 17.785 99.956 15.949 A 7.233 7.233 0 0 1 100.38 15.473 Q 102.697 13.092 106.905 12.9 A 16.53 16.53 0 0 1 107.66 12.883 A 14.108 14.108 0 0 1 111.538 13.368 Q 115.887 14.614 117.042 19.053 A 14.438 14.438 0 0 1 117.46 22.683 A 32.918 32.918 0 0 1 117.447 23.664 Q 117.42 24.563 117.34 25.197 A 8.875 8.875 0 0 1 117.32 25.343 A 5074.023 5074.023 0 0 1 114.496 45.114 Q 113.136 54.496 111.88 62.871 A 3036.495 3036.495 0 0 1 111.86 63.003 A 1716.867 1716.867 0 0 1 108.951 83.058 A 1863.191 1863.191 0 0 1 108.85 83.723 Q 107.24 94.363 105.7 105.283 A 296.434 296.434 0 0 1 121.66 101.398 A 337.616 337.616 0 0 1 126.471 100.399 A 106.303 106.303 0 0 1 127.4 92.753 A 110.128 110.128 0 0 1 129.704 81.992 A 138.418 138.418 0 0 1 132.02 74.203 A 17.481 17.481 0 0 1 133.06 71.703 Q 133.728 70.41 134.556 69.458 A 8.199 8.199 0 0 1 135.94 68.183 Q 138.234 66.526 142.964 66.377 A 30.451 30.451 0 0 1 143.92 66.363 Q 147 66.363 148.19 67.343 A 3.13 3.13 0 0 1 149.233 69.026 Q 149.369 69.549 149.379 70.176 A 6.326 6.326 0 0 1 149.38 70.283 Q 149.38 71.403 147.84 77.843 A 173.614 173.614 0 0 0 146.615 82.631 Q 146.07 84.905 145.655 86.951 A 104.031 104.031 0 0 0 145.6 87.223 A 387.034 387.034 0 0 0 144.509 93.185 Q 143.101 101.27 142.853 105.292 A 25.187 25.187 0 0 0 142.8 106.823 Q 142.8 109.107 143.223 110.335 A 3.402 3.402 0 0 0 143.5 110.953 A 2.289 2.289 0 0 0 145.149 112.093 A 3.399 3.399 0 0 0 145.74 112.143 A 2.92 2.92 0 0 0 147.061 111.782 Q 148.763 110.912 150.99 107.943 A 33.437 33.437 0 0 0 153 104.894 Q 154.939 101.611 157.024 96.813 A 124.693 124.693 0 0 0 157.71 95.203 A 123.709 123.709 0 0 0 160.358 88.246 Q 161.722 84.336 163.054 79.828 A 245.507 245.507 0 0 0 164.64 74.203 Q 165.76 70.003 168.07 68.183 A 7.355 7.355 0 0 1 170.303 67.013 Q 171.332 66.667 172.593 66.505 A 18.959 18.959 0 0 1 175 66.363 Q 177.475 66.363 178.792 66.817 A 3.528 3.528 0 0 1 179.48 67.133 A 2.418 2.418 0 0 1 180.499 68.42 Q 180.657 68.856 180.712 69.401 A 6.067 6.067 0 0 1 180.74 70.003 A 16.208 16.208 0 0 1 180.617 71.743 Q 180.084 76.443 177.24 89.183 A 596.838 596.838 0 0 0 175.908 95.42 Q 173.32 107.89 173.32 111.303 Q 173.32 113.105 173.835 114.362 A 4.688 4.688 0 0 0 174.44 115.433 Q 175.56 116.903 177.38 116.903 A 5.874 5.874 0 0 0 179.429 116.497 Q 181.174 115.846 183.239 114.15 A 25.989 25.989 0 0 0 184.03 113.473 Q 186.151 111.583 189.057 108.399 A 163.248 163.248 0 0 0 190.976 106.252 A 114.722 114.722 0 0 1 195.362 76.773 A 107.72 107.72 0 0 1 196.14 74.203 A 13.556 13.556 0 0 1 197.312 71.463 A 9.315 9.315 0 0 1 200.27 68.253 A 10.083 10.083 0 0 1 202.983 67.029 Q 205.245 66.363 208.32 66.363 A 17.736 17.736 0 0 1 209.615 66.406 Q 211.4 66.538 212.24 67.063 Q 213.153 67.633 213.322 69.042 A 5.737 5.737 0 0 1 213.36 69.723 Q 213.36 71.963 211.26 79.803 A 305.039 305.039 0 0 0 210.289 83.796 Q 209.917 85.374 209.6 86.808 A 164.172 164.172 0 0 0 209.02 89.533 Q 208.18 93.663 207.62 99.823 Q 211.134 89.67 215.919 82.422 A 55.452 55.452 0 0 1 216.65 81.343 Q 220.67 75.554 224.853 72.023 A 29.367 29.367 0 0 1 227.43 70.073 A 26.639 26.639 0 0 1 231.158 67.96 Q 233.337 66.962 235.41 66.587 A 13.765 13.765 0 0 1 237.86 66.363 A 16.918 16.918 0 0 1 240.261 66.521 Q 243.158 66.937 244.649 68.453 A 5.06 5.06 0 0 1 244.79 68.603 Q 246.314 70.284 246.694 73.305 A 17.317 17.317 0 0 1 246.82 75.463 A 25.841 25.841 0 0 1 246.664 78.06 Q 246.176 82.791 244.16 91.703 Q 243.041 96.737 242.621 99.257 A 48.193 48.193 0 0 0 242.62 99.263 A 113.017 113.017 0 0 1 247.146 89.416 Q 252.289 79.593 258.16 74.203 A 42.489 42.489 0 0 1 263.004 70.325 Q 265.639 68.537 268.159 67.556 A 16.378 16.378 0 0 1 274.12 66.363 Q 281.341 66.363 282.832 72.093 A 13.407 13.407 0 0 1 283.22 75.463 A 33.037 33.037 0 0 1 283.04 78.625 Q 282.529 83.824 280.575 93.157 A 345.453 345.453 0 0 1 280.14 95.203 A 292.959 292.959 0 0 0 279.104 100.136 Q 277.772 106.786 277.533 110.041 A 17.443 17.443 0 0 0 277.48 111.303 A 11.377 11.377 0 0 0 277.641 113.312 Q 278.271 116.802 281.36 116.9 A 5.693 5.693 0 0 0 281.54 116.903 A 5.874 5.874 0 0 0 283.589 116.497 Q 285.334 115.846 287.399 114.15 A 25.989 25.989 0 0 0 288.19 113.473 Q 290.311 111.583 293.217 108.399 A 163.248 163.248 0 0 0 295.136 106.252 A 114.722 114.722 0 0 1 299.522 76.773 A 107.72 107.72 0 0 1 300.3 74.203 A 13.556 13.556 0 0 1 301.472 71.463 A 9.315 9.315 0 0 1 304.43 68.253 A 10.083 10.083 0 0 1 307.143 67.029 Q 309.405 66.363 312.48 66.363 A 17.736 17.736 0 0 1 313.775 66.406 Q 315.56 66.538 316.4 67.063 Q 317.313 67.633 317.482 69.042 A 5.737 5.737 0 0 1 317.52 69.723 Q 317.52 71.963 315.42 79.803 A 305.039 305.039 0 0 0 314.449 83.796 Q 314.077 85.374 313.76 86.808 A 164.172 164.172 0 0 0 313.18 89.533 Q 312.34 93.663 311.78 99.823 Q 315.294 89.67 320.079 82.422 A 55.452 55.452 0 0 1 320.81 81.343 Q 324.83 75.554 329.013 72.023 A 29.367 29.367 0 0 1 331.59 70.073 A 26.639 26.639 0 0 1 335.318 67.96 Q 337.497 66.962 339.57 66.587 A 13.765 13.765 0 0 1 342.02 66.363 A 16.918 16.918 0 0 1 344.421 66.521 Q 347.318 66.937 348.809 68.453 A 5.06 5.06 0 0 1 348.95 68.603 Q 350.474 70.284 350.854 73.305 A 17.317 17.317 0 0 1 350.98 75.463 A 25.841 25.841 0 0 1 350.824 78.06 Q 350.336 82.791 348.32 91.703 Q 347.201 96.737 346.781 99.257 A 48.193 48.193 0 0 0 346.78 99.263 A 113.017 113.017 0 0 1 351.306 89.416 Q 356.449 79.593 362.32 74.203 A 42.489 42.489 0 0 1 367.164 70.325 Q 369.799 68.537 372.319 67.556 A 16.378 16.378 0 0 1 378.28 66.363 Q 385.501 66.363 386.992 72.093 A 13.407 13.407 0 0 1 387.38 75.463 A 33.037 33.037 0 0 1 387.2 78.625 Q 386.689 83.824 384.735 93.157 A 345.453 345.453 0 0 1 384.3 95.203 A 292.959 292.959 0 0 0 383.264 100.136 Q 381.932 106.786 381.693 110.041 A 17.443 17.443 0 0 0 381.64 111.303 A 11.377 11.377 0 0 0 381.801 113.312 Q 382.431 116.802 385.52 116.9 A 5.693 5.693 0 0 0 385.7 116.903 A 5.874 5.874 0 0 0 387.749 116.497 Q 389.494 115.846 391.559 114.15 A 25.989 25.989 0 0 0 392.35 113.473 Q 394.471 111.583 397.377 108.399 A 163.248 163.248 0 0 0 399.102 106.474 A 137.215 137.215 0 0 1 399.419 101.042 A 106.303 106.303 0 0 1 400.4 92.753 A 110.128 110.128 0 0 1 402.704 81.992 A 138.418 138.418 0 0 1 405.02 74.203 A 17.481 17.481 0 0 1 406.06 71.703 Q 406.728 70.41 407.556 69.458 A 8.199 8.199 0 0 1 408.94 68.183 Q 411.234 66.526 415.964 66.377 A 30.451 30.451 0 0 1 416.92 66.363 Q 420 66.363 421.19 67.343 A 3.13 3.13 0 0 1 422.233 69.026 Q 422.369 69.549 422.379 70.176 A 6.326 6.326 0 0 1 422.38 70.283 Q 422.38 71.403 420.84 77.843 A 173.614 173.614 0 0 0 419.615 82.631 Q 419.07 84.905 418.655 86.951 A 104.031 104.031 0 0 0 418.6 87.223 Q 417.48 92.963 416.64 98.213 A 88.771 88.771 0 0 0 416.197 101.309 Q 416 102.905 415.9 104.278 A 35.513 35.513 0 0 0 415.8 106.823 A 14.379 14.379 0 0 0 415.904 108.631 Q 416.142 110.5 416.93 111.374 A 2.322 2.322 0 0 0 418.74 112.143 A 2.92 2.92 0 0 0 420.061 111.782 Q 421.763 110.912 423.99 107.943 A 33.437 33.437 0 0 0 426 104.894 Q 427.939 101.611 430.024 96.813 A 124.693 124.693 0 0 0 430.71 95.203 A 123.709 123.709 0 0 0 433.358 88.246 Q 434.722 84.336 436.054 79.828 A 245.507 245.507 0 0 0 437.64 74.203 Q 438.76 70.003 441.07 68.183 A 7.355 7.355 0 0 1 443.303 67.013 Q 444.332 66.667 445.593 66.505 A 18.959 18.959 0 0 1 448 66.363 Q 450.502 66.363 451.821 66.87 A 3.363 3.363 0 0 1 452.48 67.203 A 2.686 2.686 0 0 1 453.591 68.787 Q 453.74 69.329 453.74 70.003 A 20.464 20.464 0 0 1 453.612 71.916 Q 453.157 76.384 451.084 88.445 A 1185.726 1185.726 0 0 1 450.1 94.083 L 446.46 116.623 A 420.054 420.054 0 0 1 461.667 105.673 A 362.135 362.135 0 0 1 467.46 101.783 A 10.09 10.09 0 0 1 468.44 101.247 A 2357.982 2357.982 0 0 0 468.423 93.457 Q 468.383 83.429 468.25 77.552 A 261.031 261.031 0 0 0 468.16 74.343 Q 468.027 70.468 471.081 68.123 A 9.687 9.687 0 0 1 471.38 67.903 A 12.598 12.598 0 0 1 476.168 65.871 A 17.792 17.792 0 0 1 479.78 65.523 A 11.492 11.492 0 0 1 481.302 65.616 Q 483.093 65.856 484.05 66.713 A 3.282 3.282 0 0 1 484.81 67.773 Q 485.427 69.078 485.52 71.403 Q 485.52 74.839 485.655 76.521 A 20.131 20.131 0 0 0 485.66 76.583 A 45.564 45.564 0 0 1 488.862 72.964 Q 490.547 71.265 492.212 70.021 A 21.266 21.266 0 0 1 494.48 68.533 Q 498.82 66.083 503.72 66.083 A 15.403 15.403 0 0 1 515.409 71.08 A 19.657 19.657 0 0 1 516.53 72.383 Q 521.238 78.35 521.486 87.833 A 40.777 40.777 0 0 1 521.5 88.903 Q 521.5 96.323 519.12 103.323 Q 516.74 110.323 512.54 116.063 A 28.864 28.864 0 0 0 514.282 116.506 Q 516.093 116.903 517.44 116.903 A 13.014 13.014 0 0 0 523.932 115.129 A 17.636 17.636 0 0 0 526.26 113.543 A 40.63 40.63 0 0 0 528.811 111.298 Q 531.491 108.756 534.891 104.857 A 174.86 174.86 0 0 0 535.21 104.489 A 69.863 69.863 0 0 1 534.603 98.752 A 95.418 95.418 0 0 1 534.38 92.123 Q 534.38 75.043 538.79 53.203 A 158.22 158.22 0 0 1 543.798 34.229 Q 547.203 24.074 551.81 15.683 Q 560.42 0.003 572.32 0.003 A 11.428 11.428 0 0 1 581.346 4.115 A 16.325 16.325 0 0 1 582.89 6.233 A 22.001 22.001 0 0 1 585.236 11.663 Q 586.74 16.82 586.74 24.083 Q 586.74 37.033 581.157 53.198 A 156.203 156.203 0 0 1 577.5 62.723 A 202.724 202.724 0 0 1 561.685 92.747 A 242.263 242.263 0 0 1 552.44 106.263 Q 553.322 111.428 555.225 113.93 A 7.535 7.535 0 0 0 555.66 114.453 A 7.418 7.418 0 0 0 560.761 116.873 A 10.172 10.172 0 0 0 561.54 116.903 A 16.897 16.897 0 0 0 568.016 115.681 A 16.005 16.005 0 0 0 571.62 113.613 A 36.507 36.507 0 0 0 574.25 111.391 Q 575.6 110.149 577.123 108.566 A 110.859 110.859 0 0 0 577.229 108.455 A 45.513 45.513 0 0 1 582.4 88.273 A 45.516 45.516 0 0 1 591.618 75.908 A 42.375 42.375 0 0 1 596.19 72.173 A 33.62 33.62 0 0 1 605.778 67.376 A 29.515 29.515 0 0 1 614.46 66.083 Q 616.89 66.083 618.057 66.823 A 2.474 2.474 0 0 1 618.59 67.273 A 4.676 4.676 0 0 1 619.183 68.146 Q 619.848 69.377 620.34 71.543 Q 623.28 70.983 626.5 70.983 A 14.228 14.228 0 0 1 628.918 71.17 Q 633.248 71.92 633.357 75.685 A 6.791 6.791 0 0 1 633.36 75.883 A 16.324 16.324 0 0 1 633.286 77.271 Q 632.992 80.61 631.521 88.494 A 429.757 429.757 0 0 1 631.26 89.883 A 344.263 344.263 0 0 0 629.889 97.106 Q 628.125 107.033 628.044 111.835 A 26.694 26.694 0 0 0 628.04 112.283 A 6.821 6.821 0 0 0 628.176 113.683 Q 628.363 114.574 628.808 115.259 A 4.012 4.012 0 0 0 629.09 115.643 A 3.351 3.351 0 0 0 631.511 116.892 A 4.257 4.257 0 0 0 631.82 116.903 A 5.369 5.369 0 0 0 633.686 116.533 Q 635.268 115.945 637.154 114.422 A 25.335 25.335 0 0 0 638.26 113.473 Q 640.342 111.583 643.231 108.399 A 174.896 174.896 0 0 0 645.136 106.259 A 114.722 114.722 0 0 1 649.522 76.773 A 107.72 107.72 0 0 1 650.3 74.203 A 13.556 13.556 0 0 1 651.472 71.463 A 9.315 9.315 0 0 1 654.43 68.253 A 10.083 10.083 0 0 1 657.143 67.029 Q 659.405 66.363 662.48 66.363 A 17.736 17.736 0 0 1 663.775 66.406 Q 665.56 66.538 666.4 67.063 Q 667.313 67.633 667.482 69.042 A 5.737 5.737 0 0 1 667.52 69.723 Q 667.52 71.963 665.42 79.803 A 281.594 281.594 0 0 0 664.449 83.806 Q 664.077 85.392 663.76 86.841 A 156.433 156.433 0 0 0 663.18 89.603 Q 662.603 92.49 662.158 96.304 A 144.326 144.326 0 0 0 661.78 99.963 Q 666.4 87.923 672.14 80.363 Q 677.88 72.803 683.41 69.583 A 29.029 29.029 0 0 1 687.105 67.749 Q 689.191 66.904 691.132 66.574 A 14.472 14.472 0 0 1 693.56 66.363 Q 700.781 66.363 702.272 72.093 A 13.407 13.407 0 0 1 702.66 75.463 A 33.037 33.037 0 0 1 702.48 78.625 Q 701.969 83.824 700.015 93.157 A 345.453 345.453 0 0 1 699.58 95.203 A 292.959 292.959 0 0 0 698.544 100.136 Q 697.212 106.786 696.973 110.041 A 17.443 17.443 0 0 0 696.92 111.303 A 11.377 11.377 0 0 0 697.081 113.312 Q 697.711 116.802 700.8 116.9 A 5.693 5.693 0 0 0 700.98 116.903 A 5.874 5.874 0 0 0 703.029 116.497 Q 704.774 115.846 706.839 114.15 A 25.989 25.989 0 0 0 707.63 113.473 Q 710.832 110.62 715.824 104.816 A 235.731 235.731 0 0 0 717.92 102.343 A 6.67 6.67 0 0 1 719.096 101.247 A 4.392 4.392 0 0 1 721.7 100.383 A 3.115 3.115 0 0 1 724.149 101.492 A 4.431 4.431 0 0 1 724.57 102.063 A 6.126 6.126 0 0 1 725.26 103.67 Q 725.474 104.436 725.561 105.354 A 14.112 14.112 0 0 1 725.62 106.683 A 18.946 18.946 0 0 1 725.334 110.086 Q 724.988 111.978 724.224 113.474 A 9.449 9.449 0 0 1 722.96 115.363 A 67.145 67.145 0 0 1 715.491 123.236 A 55.509 55.509 0 0 1 710.01 127.543 Q 703.08 132.303 694.26 132.303 Q 688.788 132.303 685.372 129.877 A 11.014 11.014 0 0 1 683.48 128.173 Q 680.51 124.803 679.963 118.962 A 29.641 29.641 0 0 1 679.84 116.203 Q 679.84 112.57 681.524 103.647 A 262.91 262.91 0 0 1 681.8 102.203 Q 683.519 93.872 683.615 90.412 A 14.16 14.16 0 0 0 683.62 90.023 Q 683.62 87.783 682.08 87.783 A 2.184 2.184 0 0 0 681.044 88.094 Q 679.698 88.834 677.802 91.331 A 37.379 37.379 0 0 0 676.97 92.473 A 51.83 51.83 0 0 0 674.483 96.413 Q 673.243 98.573 671.983 101.146 A 113.817 113.817 0 0 0 670.25 104.863 Q 666.82 112.563 664.72 121.103 Q 663.18 127.683 661.15 129.993 A 6.253 6.253 0 0 1 658.443 131.761 Q 656.882 132.303 654.78 132.303 A 7.706 7.706 0 0 1 651.177 131.486 Q 648.632 130.164 647.29 126.703 A 23.532 23.532 0 0 1 646.281 123.216 A 75.719 75.719 0 0 1 646.072 123.413 A 62.982 62.982 0 0 1 641.34 127.403 A 29.213 29.213 0 0 1 636.962 130.192 Q 634.316 131.544 631.743 132.03 A 15.399 15.399 0 0 1 628.88 132.303 Q 624.26 132.303 620.41 129.153 A 17.802 17.802 0 0 1 616.03 123.766 A 23.34 23.34 0 0 1 614.6 120.543 A 31.712 31.712 0 0 1 609.953 126.481 A 18.931 18.931 0 0 1 596.26 132.303 A 19.289 19.289 0 0 1 589.672 131.222 A 16.604 16.604 0 0 1 582.4 126.003 A 21.979 21.979 0 0 1 580.392 123.064 A 64.45 64.45 0 0 1 579.785 123.599 A 54.501 54.501 0 0 1 574.63 127.543 A 28.034 28.034 0 0 1 558.635 132.303 A 34.007 34.007 0 0 1 558.6 132.303 A 21.155 21.155 0 0 1 550.121 130.67 Q 544.008 128.026 540.33 121.103 A 46.311 46.311 0 0 1 539.179 118.729 A 67.145 67.145 0 0 1 534.611 123.236 A 55.509 55.509 0 0 1 529.13 127.543 Q 522.2 132.303 513.38 132.303 A 16.812 16.812 0 0 1 507.424 131.284 A 14.95 14.95 0 0 1 501.34 126.983 A 33.44 33.44 0 0 1 492.141 131.215 A 29.307 29.307 0 0 1 484.68 132.303 A 234.915 234.915 0 0 1 482.666 151.317 Q 480.445 166.121 476.42 177.453 A 48.112 48.112 0 0 1 473.193 184.737 Q 467.157 195.583 457.52 195.583 A 16.496 16.496 0 0 1 452.981 194.995 A 11.603 11.603 0 0 1 446.32 190.123 Q 443.535 185.945 442.881 179.308 A 43.953 43.953 0 0 1 442.68 175.003 A 73.531 73.531 0 0 1 443.72 163.104 Q 444.67 157.327 446.487 150.923 A 149.467 149.467 0 0 1 448.98 143.013 A 171.781 171.781 0 0 1 455.806 126.316 A 248.093 248.093 0 0 1 456.739 124.355 L 443.66 133.143 A 262.434 262.434 0 0 1 440.014 150.045 Q 437.849 158.609 435.301 165.731 A 105.039 105.039 0 0 1 429.73 178.713 A 45.658 45.658 0 0 1 424.979 186.164 Q 421.904 190.019 418.37 192.248 A 19.4 19.4 0 0 1 407.82 195.303 A 18.845 18.845 0 0 1 402.458 194.575 A 14.746 14.746 0 0 1 396.2 190.893 Q 391.72 186.483 391.72 179.343 A 31.388 31.388 0 0 1 393.208 169.951 A 39.053 39.053 0 0 1 394.73 165.903 Q 397.725 159.078 405.846 150.244 A 119.13 119.13 0 0 1 405.93 150.153 A 117.781 117.781 0 0 1 412.363 143.735 Q 419.27 137.316 429.1 129.783 L 429.52 126.563 Q 430.271 122.597 431.185 116.005 A 532.242 532.242 0 0 0 431.76 111.723 Q 429.735 119.012 426.539 123.775 A 24.127 24.127 0 0 1 423.92 127.053 A 20.976 20.976 0 0 1 420.552 129.933 Q 418.194 131.525 415.722 132.047 A 11.778 11.778 0 0 1 413.28 132.303 A 11.561 11.561 0 0 1 404.302 128.176 A 17.091 17.091 0 0 1 402.99 126.493 A 22.057 22.057 0 0 1 400.898 122.611 A 67.145 67.145 0 0 1 400.211 123.236 A 55.509 55.509 0 0 1 394.73 127.543 Q 387.8 132.303 378.98 132.303 Q 373.508 132.303 370.092 129.877 A 11.014 11.014 0 0 1 368.2 128.173 Q 365.23 124.803 364.683 118.962 A 29.641 29.641 0 0 1 364.56 116.203 Q 364.56 112.57 366.244 103.647 A 262.91 262.91 0 0 1 366.52 102.203 Q 368.239 93.872 368.335 90.412 A 14.16 14.16 0 0 0 368.34 90.023 Q 368.34 87.783 366.8 87.783 A 2.21 2.21 0 0 0 365.759 88.094 Q 364.403 88.834 362.469 91.331 A 38.187 38.187 0 0 0 361.62 92.473 A 47.934 47.934 0 0 0 359.1 96.413 Q 357 100.05 354.9 104.863 Q 351.54 112.563 349.44 121.103 A 50.62 50.62 0 0 1 348.646 124.161 Q 347.816 126.961 346.865 128.645 A 7.893 7.893 0 0 1 345.87 130.063 A 6.147 6.147 0 0 1 343.379 131.689 Q 342.385 132.053 341.155 132.201 A 15.045 15.045 0 0 1 339.36 132.303 Q 335.403 132.303 333.141 129.068 A 10.754 10.754 0 0 1 332.43 127.893 Q 330.256 123.741 330.128 117.914 A 33.472 33.472 0 0 1 330.12 117.183 Q 330.12 111.863 331.52 101.783 A 370.142 370.142 0 0 0 331.957 98.157 Q 332.515 93.299 332.617 90.95 A 21.625 21.625 0 0 0 332.64 90.023 Q 332.64 87.783 331.1 87.783 A 2.525 2.525 0 0 0 329.84 88.176 Q 328.295 89.077 326.292 92.043 A 36.589 36.589 0 0 0 325.78 92.823 Q 323.315 96.681 320.973 102.181 A 105.542 105.542 0 0 0 319.55 105.703 A 126.637 126.637 0 0 0 315.445 118.258 A 113.057 113.057 0 0 0 314.72 121.103 Q 313.18 127.683 311.15 129.993 A 6.253 6.253 0 0 1 308.443 131.761 Q 306.882 132.303 304.78 132.303 A 7.706 7.706 0 0 1 301.177 131.486 Q 298.632 130.164 297.29 126.703 A 23.532 23.532 0 0 1 296.249 123.058 A 67.145 67.145 0 0 1 296.051 123.236 A 55.509 55.509 0 0 1 290.57 127.543 Q 283.64 132.303 274.82 132.303 Q 269.348 132.303 265.932 129.877 A 11.014 11.014 0 0 1 264.04 128.173 Q 261.07 124.803 260.523 118.962 A 29.641 29.641 0 0 1 260.4 116.203 Q 260.4 112.57 262.084 103.647 A 262.91 262.91 0 0 1 262.36 102.203 Q 264.079 93.872 264.175 90.412 A 14.16 14.16 0 0 0 264.18 90.023 Q 264.18 87.783 262.64 87.783 A 2.21 2.21 0 0 0 261.599 88.094 Q 260.243 88.834 258.309 91.331 A 38.187 38.187 0 0 0 257.46 92.473 A 47.934 47.934 0 0 0 254.94 96.413 Q 252.84 100.05 250.74 104.863 Q 247.38 112.563 245.28 121.103 A 50.62 50.62 0 0 1 244.486 124.161 Q 243.656 126.961 242.705 128.645 A 7.893 7.893 0 0 1 241.71 130.063 A 6.147 6.147 0 0 1 239.219 131.689 Q 238.225 132.053 236.995 132.201 A 15.045 15.045 0 0 1 235.2 132.303 Q 231.243 132.303 228.981 129.068 A 10.754 10.754 0 0 1 228.27 127.893 Q 226.096 123.741 225.968 117.914 A 33.472 33.472 0 0 1 225.96 117.183 Q 225.96 111.863 227.36 101.783 A 370.142 370.142 0 0 0 227.797 98.157 Q 228.355 93.299 228.457 90.95 A 21.625 21.625 0 0 0 228.48 90.023 Q 228.48 87.783 226.94 87.783 A 2.525 2.525 0 0 0 225.68 88.176 Q 224.135 89.077 222.132 92.043 A 36.589 36.589 0 0 0 221.62 92.823 Q 219.155 96.681 216.813 102.181 A 105.542 105.542 0 0 0 215.39 105.703 A 126.637 126.637 0 0 0 211.285 118.258 A 113.057 113.057 0 0 0 210.56 121.103 Q 209.02 127.683 206.99 129.993 A 6.253 6.253 0 0 1 204.283 131.761 Q 202.722 132.303 200.62 132.303 A 7.706 7.706 0 0 1 197.017 131.486 Q 194.472 130.164 193.13 126.703 A 23.532 23.532 0 0 1 192.089 123.058 A 67.145 67.145 0 0 1 191.891 123.236 A 55.509 55.509 0 0 1 186.41 127.543 Q 179.48 132.303 170.66 132.303 A 13.703 13.703 0 0 1 166.635 131.745 A 10.149 10.149 0 0 1 160.79 127.123 A 18.753 18.753 0 0 1 158.814 122.448 Q 158.172 120.173 157.881 117.43 A 46.271 46.271 0 0 1 157.64 112.563 A 46.905 46.905 0 0 1 155.723 118.586 Q 154.477 121.705 152.869 124.154 A 22.787 22.787 0 0 1 150.5 127.193 Q 145.74 132.303 140.28 132.303 A 11.561 11.561 0 0 1 131.302 128.176 A 17.091 17.091 0 0 1 129.99 126.493 A 22.057 22.057 0 0 1 126.634 118.464 A 31.284 31.284 0 0 1 126.136 115.113 A 516.83 516.83 0 0 0 103.46 119.983 Z M 569.24 13.863 A 2.661 2.661 0 0 0 567.524 14.635 Q 565.588 16.323 563.386 21.698 A 77.121 77.121 0 0 0 561.96 25.483 A 136.2 136.2 0 0 0 559.053 34.985 Q 557.615 40.328 556.326 46.52 A 281.105 281.105 0 0 0 554.82 54.323 A 218.88 218.88 0 0 0 551.909 77.338 A 188.535 188.535 0 0 0 551.46 87.363 Q 561.4 70.983 567.28 54.533 A 112.385 112.385 0 0 0 571.248 40.926 Q 573.16 32.247 573.16 24.503 Q 573.16 13.863 569.24 13.863 Z M 458.64 181.863 A 2.468 2.468 0 0 0 460.506 180.769 Q 463.07 177.622 464.94 165.413 A 235.443 235.443 0 0 0 466.574 151.943 Q 467.723 139.775 468.16 124.463 A 225.201 225.201 0 0 0 461.9 140.643 A 181.703 181.703 0 0 0 458.64 151.203 A 124.996 124.996 0 0 0 456.648 159.482 Q 455.847 163.437 455.471 166.898 A 53.269 53.269 0 0 0 455.14 172.623 A 30.827 30.827 0 0 0 455.233 175.098 Q 455.429 177.523 456.04 179.118 A 7.982 7.982 0 0 0 456.19 179.483 Q 456.961 181.229 457.92 181.694 A 1.633 1.633 0 0 0 458.64 181.863 Z M 84.7 126.423 L 84.84 125.443 A 124.048 124.048 0 0 0 72.474 130.428 Q 50.96 140.615 50.96 154.003 A 10.306 10.306 0 0 0 51.446 157.23 A 8.644 8.644 0 0 0 53.41 160.513 Q 55.805 163.044 60.14 163.101 A 15.262 15.262 0 0 0 60.34 163.103 A 18.186 18.186 0 0 0 75.873 154.357 Q 81.066 146.826 83.685 132.808 A 124.754 124.754 0 0 0 84.7 126.423 Z M 611.24 104.863 L 616.42 79.103 A 16.39 16.39 0 0 0 607.306 82.167 A 21.372 21.372 0 0 0 605.57 83.513 A 27.593 27.593 0 0 0 599.808 90.483 A 35.368 35.368 0 0 0 597.66 94.783 A 37.932 37.932 0 0 0 594.72 109.623 A 17.262 17.262 0 0 0 594.859 111.887 Q 595.212 114.553 596.47 116.063 A 5.72 5.72 0 0 0 600.37 118.111 A 8.193 8.193 0 0 0 601.3 118.163 A 5.634 5.634 0 0 0 604.264 117.281 Q 605.151 116.741 606.013 115.87 A 14.38 14.38 0 0 0 607.18 114.523 Q 609.98 110.883 611.24 104.863 Z M 485.38 118.863 A 16.937 16.937 0 0 0 491.664 115.976 A 22.924 22.924 0 0 0 494.69 113.333 A 30.237 30.237 0 0 0 499.734 106.276 A 37.444 37.444 0 0 0 501.48 102.413 Q 504 95.903 504 88.763 A 16.8 16.8 0 0 0 503.844 86.392 Q 503.488 83.901 502.32 82.393 A 5.317 5.317 0 0 0 498.46 80.25 A 6.769 6.769 0 0 0 497.84 80.223 A 6.557 6.557 0 0 0 494.663 81.16 Q 491.057 83.171 486.6 89.496 A 72.519 72.519 0 0 0 485.66 90.863 Q 485.553 95.579 485.528 103.66 A 1697.46 1697.46 0 0 0 485.52 108.923 Q 485.52 113.853 485.438 117.06 A 125.996 125.996 0 0 1 485.38 118.863 Z M 409.36 181.723 A 4.021 4.021 0 0 0 411.556 180.978 Q 414.174 179.264 417.2 173.603 A 50.017 50.017 0 0 0 419.608 168.269 Q 421.764 162.75 423.92 154.569 A 257.779 257.779 0 0 0 425.88 146.583 A 126.104 126.104 0 0 0 419.724 152.113 Q 416.705 155.022 414.368 157.747 A 50.165 50.165 0 0 0 410.27 163.173 Q 407.224 167.896 406.099 171.868 A 16.148 16.148 0 0 0 405.44 176.263 Q 405.44 178.643 406.35 180.183 A 3.011 3.011 0 0 0 408.554 181.659 A 4.842 4.842 0 0 0 409.36 181.723 Z" vector-effect="non-scaling-stroke"/>
</svg>
