<svg width="725.081" height="195.583" viewBox="0 0 725.081 195.583" xmlns="http://www.w3.org/2000/svg">
  <g id="svgGroup" stroke-linecap="round" fill-rule="evenodd" font-size="9pt" fill="#2d3748">
    <path d="M 103.46 119.983 L 103.04 123.343 A 128.407 128.407 0 0 1 99.93 138.817 Q 95.558 154.954 87.43 164.153 A 38.731 38.731 0 0 1 73.485 174.427 A 38.667 38.667 0 0 1 58.24 177.383 A 38.26 38.26 0 0 1 51.18 176.772 Q 47.18 176.02 44.037 174.342 A 19.446 19.446 0 0 1 40.25 171.713 A 18.38 18.38 0 0 1 33.905 158.313 A 23.637 23.637 0 0 1 33.88 157.223 A 31.537 31.537 0 0 1 41.129 137.176 A 46.674 46.674 0 0 1 47.04 131.043 A 72.043 72.043 0 0 1 57.692 123.464 Q 69.209 116.639 86.393 110.924 A 232.382 232.382 0 0 1 86.94 110.743 L 89.74 91.003 Q 90.169 88.43 90.762 84.545 A 1002.608 1002.608 0 0 0 91.14 82.043 A 87.009 87.009 0 0 1 86.186 92.935 Q 83.135 98.518 79.531 102.762 A 42.987 42.987 0 0 1 74.34 107.943 A 36.687 36.687 0 0 1 62.27 114.789 A 34.123 34.123 0 0 1 51.52 116.483 A 31.509 31.509 0 0 1 44.237 115.691 A 20.304 20.304 0 0 1 33.18 109.133 A 25.624 25.624 0 0 1 27.527 97.169 A 36.25 36.25 0 0 1 26.88 90.163 Q 26.88 84.983 28 78.753 Q 28.858 73.983 30.454 66.628 A 764.961 764.961 0 0 1 31.5 61.883 Q 33.6 52.223 34.65 46.483 Q 35.553 41.55 35.679 37.548 A 40.557 40.557 0 0 0 35.7 36.263 Q 35.7 29.543 30.52 29.543 A 10.437 10.437 0 0 0 27.412 30.058 Q 24.473 30.976 20.93 33.533 A 38.443 38.443 0 0 0 16.717 37.104 Q 13.102 40.604 9.24 45.783 Q 8.007 47.457 6.607 48.077 A 4.169 4.169 0 0 1 4.9 48.443 A 3.875 3.875 0 0 1 2.348 47.477 A 6.042 6.042 0 0 1 1.47 46.553 Q 0 44.663 0 42.283 Q 0 39.126 2.074 35.376 A 29.323 29.323 0 0 1 3.92 32.483 Q 18.2 12.883 37.38 12.883 A 22.618 22.618 0 0 1 43.011 13.544 A 15.654 15.654 0 0 1 50.75 18.063 A 16.45 16.45 0 0 1 54.296 24.23 Q 55.134 26.771 55.425 29.866 A 36.924 36.924 0 0 1 55.58 33.323 A 86.166 86.166 0 0 1 54.431 47.161 A 95.227 95.227 0 0 1 54.25 48.233 Q 53.061 55.058 50.807 65.188 A 711.122 711.122 0 0 1 50.26 67.623 Q 48.58 74.623 47.74 78.893 Q 46.9 83.163 46.9 85.963 A 32.066 32.066 0 0 0 47.078 89.469 Q 47.57 93.921 49.42 96.183 A 7.354 7.354 0 0 0 52.414 98.315 Q 53.653 98.818 55.22 99.054 A 20.34 20.34 0 0 0 58.24 99.263 A 15.663 15.663 0 0 0 65.163 97.552 Q 67.538 96.391 69.945 94.442 A 39.517 39.517 0 0 0 73.71 90.933 Q 81.62 82.603 87.99 65.663 A 133.713 133.713 0 0 0 92.73 50.024 Q 94.663 42.023 96.032 32.828 A 255.148 255.148 0 0 0 97.16 24.223 A 27.565 27.565 0 0 1 97.696 21.05 Q 98.461 17.785 99.956 15.949 A 7.233 7.233 0 0 1 100.38 15.473 Q 102.697 13.092 106.905 12.9 A 16.53 16.53 0 0 1 107.66 12.883 A 14.108 14.108 0 0 1 111.538 13.368 Q 115.887 14.614 117.042 19.053 A 14.438 14.438 0 0 1 117.46 22.683 A 32.918 32.918 0 0 1 117.447 23.664 Q 117.42 24.563 117.34 25.197 A 8.875 8.875 0 0 1 117.32 25.343 A 5074.023 5074.023 0 0 1 114.496 45.114 Q 113.136 54.496 111.88 62.871 A 3036.495 3036.495 0 0 1 111.86 63.003 A 1716.867 1716.867 0 0 1 108.951 83.058 A 1863.191 1863.191 0 0 1 108.85 83.723 Q 107.24 94.363 105.7 105.283 A 296.434 296.434 0 0 1 121.66 101.398 A 337.616 337.616 0 0 1 124.905 100.716 A 106.303 106.303 0 0 1 125.86 92.753 A 110.128 110.128 0 0 1 128.164 81.992 A 138.418 138.418 0 0 1 130.48 74.203 A 17.481 17.481 0 0 1 131.52 71.703 Q 132.188 70.41 133.016 69.458 A 8.199 8.199 0 0 1 134.4 68.183 Q 136.694 66.526 141.424 66.377 A 30.451 30.451 0 0 1 142.38 66.363 Q 145.46 66.363 146.65 67.343 A 3.13 3.13 0 0 1 147.693 69.026 Q 147.829 69.549 147.839 70.176 A 6.326 6.326 0 0 1 147.84 70.283 Q 147.84 71.403 146.3 77.843 A 173.614 173.614 0 0 0 145.075 82.631 Q 144.53 84.905 144.115 86.951 A 104.031 104.031 0 0 0 144.06 87.223 A 387.034 387.034 0 0 0 142.969 93.185 Q 141.561 101.27 141.313 105.292 A 25.187 25.187 0 0 0 141.26 106.823 Q 141.26 109.107 141.683 110.335 A 3.402 3.402 0 0 0 141.96 110.953 A 2.289 2.289 0 0 0 143.609 112.093 A 3.399 3.399 0 0 0 144.2 112.143 A 2.92 2.92 0 0 0 145.521 111.782 Q 147.223 110.912 149.45 107.943 A 33.437 33.437 0 0 0 151.46 104.894 Q 153.399 101.611 155.484 96.813 A 124.693 124.693 0 0 0 156.17 95.203 A 123.709 123.709 0 0 0 158.818 88.246 Q 160.182 84.336 161.514 79.828 A 245.507 245.507 0 0 0 163.1 74.203 Q 164.22 70.003 166.53 68.183 A 7.355 7.355 0 0 1 168.763 67.013 Q 169.792 66.667 171.053 66.505 A 18.959 18.959 0 0 1 173.46 66.363 Q 175.935 66.363 177.252 66.817 A 3.528 3.528 0 0 1 177.94 67.133 A 2.418 2.418 0 0 1 178.959 68.42 Q 179.117 68.856 179.172 69.401 A 6.067 6.067 0 0 1 179.2 70.003 A 16.208 16.208 0 0 1 179.077 71.743 Q 178.544 76.443 175.7 89.183 A 596.838 596.838 0 0 0 174.368 95.42 Q 171.78 107.89 171.78 111.303 Q 171.78 113.105 172.295 114.362 A 4.688 4.688 0 0 0 172.9 115.433 Q 174.02 116.903 175.84 116.903 A 5.874 5.874 0 0 0 177.889 116.497 Q 179.634 115.846 181.699 114.15 A 25.989 25.989 0 0 0 182.49 113.473 Q 184.611 111.583 187.517 108.399 A 163.248 163.248 0 0 0 189.436 106.252 A 114.722 114.722 0 0 1 193.822 76.773 A 107.72 107.72 0 0 1 194.6 74.203 A 13.556 13.556 0 0 1 195.772 71.463 A 9.315 9.315 0 0 1 198.73 68.253 A 10.083 10.083 0 0 1 201.443 67.029 Q 203.705 66.363 206.78 66.363 A 17.736 17.736 0 0 1 208.075 66.406 Q 209.86 66.538 210.7 67.063 Q 211.613 67.633 211.782 69.042 A 5.737 5.737 0 0 1 211.82 69.723 Q 211.82 71.963 209.72 79.803 A 305.039 305.039 0 0 0 208.749 83.796 Q 208.377 85.374 208.06 86.808 A 164.172 164.172 0 0 0 207.48 89.533 Q 206.64 93.663 206.08 99.823 Q 209.594 89.67 214.379 82.422 A 55.452 55.452 0 0 1 215.11 81.343 Q 219.13 75.554 223.313 72.023 A 29.367 29.367 0 0 1 225.89 70.073 A 26.639 26.639 0 0 1 229.618 67.96 Q 231.797 66.962 233.87 66.587 A 13.765 13.765 0 0 1 236.32 66.363 A 16.918 16.918 0 0 1 238.721 66.521 Q 241.618 66.937 243.109 68.453 A 5.06 5.06 0 0 1 243.25 68.603 Q 244.774 70.284 245.154 73.305 A 17.317 17.317 0 0 1 245.28 75.463 A 25.841 25.841 0 0 1 245.124 78.06 Q 244.636 82.791 242.62 91.703 Q 241.501 96.737 241.081 99.257 A 48.193 48.193 0 0 0 241.08 99.263 A 113.017 113.017 0 0 1 245.606 89.416 Q 250.749 79.593 256.62 74.203 A 42.489 42.489 0 0 1 261.464 70.325 Q 264.099 68.537 266.619 67.556 A 16.378 16.378 0 0 1 272.58 66.363 Q 279.801 66.363 281.292 72.093 A 13.407 13.407 0 0 1 281.68 75.463 A 33.037 33.037 0 0 1 281.5 78.625 Q 280.989 83.824 279.035 93.157 A 345.453 345.453 0 0 1 278.6 95.203 A 292.959 292.959 0 0 0 277.564 100.136 Q 276.232 106.786 275.993 110.041 A 17.443 17.443 0 0 0 275.94 111.303 A 11.377 11.377 0 0 0 276.101 113.312 Q 276.731 116.802 279.82 116.9 A 5.693 5.693 0 0 0 280 116.903 A 5.874 5.874 0 0 0 282.049 116.497 Q 283.794 115.846 285.859 114.15 A 25.989 25.989 0 0 0 286.65 113.473 Q 288.771 111.583 291.677 108.399 A 163.248 163.248 0 0 0 293.596 106.252 A 114.722 114.722 0 0 1 297.982 76.773 A 107.72 107.72 0 0 1 298.76 74.203 A 13.556 13.556 0 0 1 299.932 71.463 A 9.315 9.315 0 0 1 302.89 68.253 A 10.083 10.083 0 0 1 305.603 67.029 Q 307.865 66.363 310.94 66.363 A 17.736 17.736 0 0 1 312.235 66.406 Q 314.02 66.538 314.86 67.063 Q 315.773 67.633 315.942 69.042 A 5.737 5.737 0 0 1 315.98 69.723 Q 315.98 71.963 313.88 79.803 A 305.039 305.039 0 0 0 312.909 83.796 Q 312.537 85.374 312.22 86.808 A 164.172 164.172 0 0 0 311.64 89.533 Q 310.8 93.663 310.24 99.823 Q 313.754 89.67 318.539 82.422 A 55.452 55.452 0 0 1 319.27 81.343 Q 323.29 75.554 327.473 72.023 A 29.367 29.367 0 0 1 330.05 70.073 A 26.639 26.639 0 0 1 333.778 67.96 Q 335.957 66.962 338.03 66.587 A 13.765 13.765 0 0 1 340.48 66.363 A 16.918 16.918 0 0 1 342.881 66.521 Q 345.778 66.937 347.269 68.453 A 5.06 5.06 0 0 1 347.41 68.603 Q 348.934 70.284 349.314 73.305 A 17.317 17.317 0 0 1 349.44 75.463 A 25.841 25.841 0 0 1 349.284 78.06 Q 348.796 82.791 346.78 91.703 Q 345.661 96.737 345.241 99.257 A 48.193 48.193 0 0 0 345.24 99.263 A 113.017 113.017 0 0 1 349.766 89.416 Q 354.909 79.593 360.78 74.203 A 42.489 42.489 0 0 1 365.624 70.325 Q 368.259 68.537 370.779 67.556 A 16.378 16.378 0 0 1 376.74 66.363 Q 383.961 66.363 385.452 72.093 A 13.407 13.407 0 0 1 385.84 75.463 A 33.037 33.037 0 0 1 385.66 78.625 Q 385.149 83.824 383.195 93.157 A 345.453 345.453 0 0 1 382.76 95.203 A 292.959 292.959 0 0 0 381.724 100.136 Q 380.392 106.786 380.153 110.041 A 17.443 17.443 0 0 0 380.1 111.303 A 11.377 11.377 0 0 0 380.261 113.312 Q 380.891 116.802 383.98 116.9 A 5.693 5.693 0 0 0 384.16 116.903 A 5.874 5.874 0 0 0 386.209 116.497 Q 387.954 115.846 390.019 114.15 A 25.989 25.989 0 0 0 390.81 113.473 Q 392.931 111.583 395.837 108.399 A 163.248 163.248 0 0 0 397.562 106.474 A 137.215 137.215 0 0 1 397.879 101.042 A 106.303 106.303 0 0 1 398.86 92.753 A 110.128 110.128 0 0 1 401.164 81.992 A 138.418 138.418 0 0 1 403.48 74.203 A 17.481 17.481 0 0 1 404.52 71.703 Q 405.188 70.41 406.016 69.458 A 8.199 8.199 0 0 1 407.4 68.183 Q 409.694 66.526 414.424 66.377 A 30.451 30.451 0 0 1 415.38 66.363 Q 418.46 66.363 419.65 67.343 A 3.13 3.13 0 0 1 420.693 69.026 Q 420.829 69.549 420.839 70.176 A 6.326 6.326 0 0 1 420.84 70.283 Q 420.84 71.403 419.3 77.843 A 173.614 173.614 0 0 0 418.075 82.631 Q 417.53 84.905 417.115 86.951 A 104.031 104.031 0 0 0 417.06 87.223 Q 415.94 92.963 415.1 98.213 A 88.771 88.771 0 0 0 414.657 101.309 Q 414.46 102.905 414.36 104.278 A 35.513 35.513 0 0 0 414.26 106.823 A 14.379 14.379 0 0 0 414.364 108.631 Q 414.602 110.5 415.39 111.374 A 2.322 2.322 0 0 0 417.2 112.143 A 2.92 2.92 0 0 0 418.521 111.782 Q 420.223 110.912 422.45 107.943 A 33.437 33.437 0 0 0 424.46 104.894 Q 426.399 101.611 428.484 96.813 A 124.693 124.693 0 0 0 429.17 95.203 A 123.709 123.709 0 0 0 431.818 88.246 Q 433.182 84.336 434.514 79.828 A 245.507 245.507 0 0 0 436.1 74.203 Q 437.22 70.003 439.53 68.183 A 7.355 7.355 0 0 1 441.763 67.013 Q 442.792 66.667 444.053 66.505 A 18.959 18.959 0 0 1 446.46 66.363 Q 448.962 66.363 450.281 66.87 A 3.363 3.363 0 0 1 450.94 67.203 A 2.686 2.686 0 0 1 452.051 68.787 Q 452.2 69.329 452.2 70.003 A 20.464 20.464 0 0 1 452.072 71.916 Q 451.617 76.384 449.544 88.445 A 1185.726 1185.726 0 0 1 448.56 94.083 L 444.92 116.623 A 420.054 420.054 0 0 1 460.127 105.673 A 362.135 362.135 0 0 1 465.92 101.783 A 10.09 10.09 0 0 1 467.017 101.192 Q 467.597 100.927 468.128 100.795 A 4.186 4.186 0 0 1 468.3 100.755 A 2357.982 2357.982 0 0 0 468.283 93.457 Q 468.243 83.429 468.11 77.552 A 261.031 261.031 0 0 0 468.02 74.343 Q 467.887 70.468 470.941 68.123 A 9.687 9.687 0 0 1 471.24 67.903 A 12.598 12.598 0 0 1 476.028 65.871 A 17.792 17.792 0 0 1 479.64 65.523 A 11.492 11.492 0 0 1 481.162 65.616 Q 482.953 65.856 483.91 66.713 A 3.282 3.282 0 0 1 484.67 67.773 Q 485.287 69.078 485.38 71.403 Q 485.38 74.839 485.515 76.521 A 20.131 20.131 0 0 0 485.52 76.583 A 45.564 45.564 0 0 1 488.722 72.964 Q 490.407 71.265 492.072 70.021 A 21.266 21.266 0 0 1 494.34 68.533 Q 498.68 66.083 503.58 66.083 A 15.403 15.403 0 0 1 515.269 71.08 A 19.657 19.657 0 0 1 516.39 72.383 Q 521.098 78.35 521.346 87.833 A 40.777 40.777 0 0 1 521.36 88.903 Q 521.36 96.323 518.98 103.323 Q 516.6 110.323 512.4 116.063 A 28.864 28.864 0 0 0 514.142 116.506 Q 515.953 116.903 517.3 116.903 A 13.014 13.014 0 0 0 523.792 115.129 A 17.636 17.636 0 0 0 526.12 113.543 A 40.63 40.63 0 0 0 528.671 111.298 Q 531.351 108.756 534.751 104.857 A 174.86 174.86 0 0 0 535.07 104.489 A 69.863 69.863 0 0 1 534.463 98.752 A 95.418 95.418 0 0 1 534.24 92.123 Q 534.24 75.043 538.65 53.203 A 158.22 158.22 0 0 1 543.658 34.229 Q 547.063 24.074 551.67 15.683 Q 560.28 0.003 572.18 0.003 A 11.428 11.428 0 0 1 581.206 4.115 A 16.325 16.325 0 0 1 582.75 6.233 A 22.001 22.001 0 0 1 585.096 11.663 Q 586.6 16.82 586.6 24.083 Q 586.6 37.033 581.017 53.198 A 156.203 156.203 0 0 1 577.36 62.723 A 202.724 202.724 0 0 1 561.545 92.747 A 242.263 242.263 0 0 1 552.3 106.263 Q 553.182 111.428 555.085 113.93 A 7.535 7.535 0 0 0 555.52 114.453 A 7.418 7.418 0 0 0 560.621 116.873 A 10.172 10.172 0 0 0 561.4 116.903 A 16.897 16.897 0 0 0 567.876 115.681 A 16.005 16.005 0 0 0 571.48 113.613 A 36.507 36.507 0 0 0 574.11 111.391 A 66.584 66.584 0 0 0 575.682 109.887 A 39.76 39.76 0 0 1 575.68 109.483 Q 575.68 98.283 580.86 88.273 A 45.516 45.516 0 0 1 590.078 75.908 A 42.375 42.375 0 0 1 594.65 72.173 A 33.62 33.62 0 0 1 604.238 67.376 A 29.515 29.515 0 0 1 612.92 66.083 Q 615.35 66.083 616.517 66.823 A 2.474 2.474 0 0 1 617.05 67.273 A 4.676 4.676 0 0 1 617.643 68.146 Q 618.308 69.377 618.8 71.543 Q 621.74 70.983 624.96 70.983 A 14.228 14.228 0 0 1 627.378 71.17 Q 631.708 71.92 631.817 75.685 A 6.791 6.791 0 0 1 631.82 75.883 A 16.324 16.324 0 0 1 631.746 77.271 Q 631.452 80.61 629.981 88.494 A 429.757 429.757 0 0 1 629.72 89.883 A 344.263 344.263 0 0 0 628.349 97.106 Q 626.585 107.033 626.504 111.835 A 26.694 26.694 0 0 0 626.5 112.283 A 6.821 6.821 0 0 0 626.636 113.683 Q 626.823 114.574 627.268 115.259 A 4.012 4.012 0 0 0 627.55 115.643 A 3.351 3.351 0 0 0 629.971 116.892 A 4.257 4.257 0 0 0 630.28 116.903 A 5.369 5.369 0 0 0 632.146 116.533 Q 633.728 115.945 635.614 114.422 A 25.335 25.335 0 0 0 636.72 113.473 Q 638.802 111.583 641.691 108.399 A 174.896 174.896 0 0 0 643.596 106.259 A 114.722 114.722 0 0 1 647.982 76.773 A 107.72 107.72 0 0 1 648.76 74.203 A 13.556 13.556 0 0 1 649.932 71.463 A 9.315 9.315 0 0 1 652.89 68.253 A 10.083 10.083 0 0 1 655.603 67.029 Q 657.865 66.363 660.94 66.363 A 17.736 17.736 0 0 1 662.235 66.406 Q 664.02 66.538 664.86 67.063 Q 665.773 67.633 665.942 69.042 A 5.737 5.737 0 0 1 665.98 69.723 Q 665.98 71.963 663.88 79.803 A 281.594 281.594 0 0 0 662.909 83.806 Q 662.537 85.392 662.22 86.841 A 156.433 156.433 0 0 0 661.64 89.603 Q 661.063 92.49 660.618 96.304 A 144.326 144.326 0 0 0 660.24 99.963 Q 664.86 87.923 670.6 80.363 Q 676.34 72.803 681.87 69.583 A 29.029 29.029 0 0 1 685.565 67.749 Q 687.651 66.904 689.592 66.574 A 14.472 14.472 0 0 1 692.02 66.363 Q 699.241 66.363 700.732 72.093 A 13.407 13.407 0 0 1 701.12 75.463 A 33.037 33.037 0 0 1 700.94 78.625 Q 700.429 83.824 698.475 93.157 A 345.453 345.453 0 0 1 698.04 95.203 A 292.959 292.959 0 0 0 697.004 100.136 Q 695.672 106.786 695.433 110.041 A 17.443 17.443 0 0 0 695.38 111.303 A 11.377 11.377 0 0 0 695.541 113.312 Q 696.171 116.802 699.26 116.9 A 5.693 5.693 0 0 0 699.44 116.903 A 5.874 5.874 0 0 0 701.489 116.497 Q 703.234 115.846 705.299 114.15 A 25.989 25.989 0 0 0 706.09 113.473 Q 709.292 110.62 714.284 104.816 A 235.731 235.731 0 0 0 716.38 102.343 A 6.67 6.67 0 0 1 717.556 101.247 A 4.392 4.392 0 0 1 720.16 100.383 A 3.115 3.115 0 0 1 722.609 101.492 A 4.431 4.431 0 0 1 723.03 102.063 A 6.126 6.126 0 0 1 723.72 103.67 Q 723.934 104.436 724.021 105.354 A 14.112 14.112 0 0 1 724.08 106.683 A 18.946 18.946 0 0 1 723.794 110.086 Q 723.448 111.978 722.684 113.474 A 9.449 9.449 0 0 1 721.42 115.363 A 67.145 67.145 0 0 1 713.951 123.236 A 55.509 55.509 0 0 1 708.47 127.543 Q 701.54 132.303 692.72 132.303 Q 687.248 132.303 683.832 129.877 A 11.014 11.014 0 0 1 681.94 128.173 Q 678.97 124.803 678.423 118.962 A 29.641 29.641 0 0 1 678.3 116.203 Q 678.3 112.57 679.984 103.647 A 262.91 262.91 0 0 1 680.26 102.203 Q 681.979 93.872 682.075 90.412 A 14.16 14.16 0 0 0 682.08 90.023 Q 682.08 87.783 680.54 87.783 A 2.184 2.184 0 0 0 679.504 88.094 Q 678.158 88.834 676.262 91.331 A 37.379 37.379 0 0 0 675.43 92.473 A 51.83 51.83 0 0 0 672.943 96.413 Q 671.703 98.573 670.443 101.146 A 113.817 113.817 0 0 0 668.71 104.863 Q 665.28 112.563 663.18 121.103 Q 661.64 127.683 659.61 129.993 A 6.253 6.253 0 0 1 656.903 131.761 Q 655.342 132.303 653.24 132.303 A 7.706 7.706 0 0 1 649.637 131.486 Q 647.092 130.164 645.75 126.703 A 23.532 23.532 0 0 1 644.741 123.216 A 75.719 75.719 0 0 1 644.532 123.413 A 62.982 62.982 0 0 1 639.8 127.403 A 29.213 29.213 0 0 1 635.422 130.192 Q 632.776 131.544 630.203 132.03 A 15.399 15.399 0 0 1 627.34 132.303 Q 622.72 132.303 618.87 129.153 A 17.802 17.802 0 0 1 614.49 123.766 A 23.34 23.34 0 0 1 613.06 120.543 A 31.712 31.712 0 0 1 608.413 126.481 A 18.931 18.931 0 0 1 594.72 132.303 A 19.289 19.289 0 0 1 588.132 131.222 A 16.604 16.604 0 0 1 580.86 126.003 A 21.979 21.979 0 0 1 579.333 123.866 A 54.501 54.501 0 0 1 574.49 127.543 A 28.034 28.034 0 0 1 558.495 132.303 A 34.007 34.007 0 0 1 558.46 132.303 A 21.155 21.155 0 0 1 549.981 130.67 Q 543.868 128.026 540.19 121.103 A 46.311 46.311 0 0 1 539.039 118.729 A 67.145 67.145 0 0 1 534.471 123.236 A 55.509 55.509 0 0 1 528.99 127.543 Q 522.06 132.303 513.24 132.303 A 16.812 16.812 0 0 1 507.284 131.284 A 14.95 14.95 0 0 1 501.2 126.983 A 33.44 33.44 0 0 1 492.001 131.215 A 29.307 29.307 0 0 1 484.54 132.303 A 234.915 234.915 0 0 1 482.526 151.317 Q 480.305 166.121 476.28 177.453 A 48.112 48.112 0 0 1 473.053 184.737 Q 467.017 195.583 457.38 195.583 A 16.496 16.496 0 0 1 452.841 194.995 A 11.603 11.603 0 0 1 446.18 190.123 Q 443.395 185.945 442.741 179.308 A 43.953 43.953 0 0 1 442.54 175.003 A 73.531 73.531 0 0 1 443.58 163.104 Q 444.53 157.327 446.347 150.923 A 149.467 149.467 0 0 1 448.84 143.013 A 171.781 171.781 0 0 1 455.666 126.316 A 248.093 248.093 0 0 1 457.276 122.96 L 442.12 133.143 A 262.434 262.434 0 0 1 438.474 150.045 Q 436.309 158.609 433.761 165.731 A 105.039 105.039 0 0 1 428.19 178.713 A 45.658 45.658 0 0 1 423.439 186.164 Q 420.364 190.019 416.83 192.248 A 19.4 19.4 0 0 1 406.28 195.303 A 18.845 18.845 0 0 1 400.918 194.575 A 14.746 14.746 0 0 1 394.66 190.893 Q 390.18 186.483 390.18 179.343 A 31.388 31.388 0 0 1 391.668 169.951 A 39.053 39.053 0 0 1 393.19 165.903 Q 396.185 159.078 404.306 150.244 A 119.13 119.13 0 0 1 404.39 150.153 A 117.781 117.781 0 0 1 410.823 143.735 Q 417.73 137.316 427.56 129.783 L 427.98 126.563 Q 428.731 122.597 429.645 116.005 A 532.242 532.242 0 0 0 430.22 111.723 Q 428.195 119.012 424.999 123.775 A 24.127 24.127 0 0 1 422.38 127.053 A 20.976 20.976 0 0 1 419.012 129.933 Q 416.654 131.525 414.182 132.047 A 11.778 11.778 0 0 1 411.74 132.303 A 11.561 11.561 0 0 1 402.762 128.176 A 17.091 17.091 0 0 1 401.45 126.493 A 22.057 22.057 0 0 1 399.358 122.611 A 67.145 67.145 0 0 1 398.671 123.236 A 55.509 55.509 0 0 1 393.19 127.543 Q 386.26 132.303 377.44 132.303 Q 371.968 132.303 368.552 129.877 A 11.014 11.014 0 0 1 366.66 128.173 Q 363.69 124.803 363.143 118.962 A 29.641 29.641 0 0 1 363.02 116.203 Q 363.02 112.57 364.704 103.647 A 262.91 262.91 0 0 1 364.98 102.203 Q 366.699 93.872 366.795 90.412 A 14.16 14.16 0 0 0 366.8 90.023 Q 366.8 87.783 365.26 87.783 A 2.21 2.21 0 0 0 364.219 88.094 Q 362.863 88.834 360.929 91.331 A 38.187 38.187 0 0 0 360.08 92.473 A 47.934 47.934 0 0 0 357.56 96.413 Q 355.46 100.05 353.36 104.863 Q 350 112.563 347.9 121.103 A 50.62 50.62 0 0 1 347.106 124.161 Q 346.276 126.961 345.325 128.645 A 7.893 7.893 0 0 1 344.33 130.063 A 6.147 6.147 0 0 1 341.839 131.689 Q 340.845 132.053 339.615 132.201 A 15.045 15.045 0 0 1 337.82 132.303 Q 333.863 132.303 331.601 129.068 A 10.754 10.754 0 0 1 330.89 127.893 Q 328.716 123.741 328.588 117.914 A 33.472 33.472 0 0 1 328.58 117.183 Q 328.58 111.863 329.98 101.783 A 370.142 370.142 0 0 0 330.417 98.157 Q 330.975 93.299 331.077 90.95 A 21.625 21.625 0 0 0 331.1 90.023 Q 331.1 87.783 329.56 87.783 A 2.525 2.525 0 0 0 328.3 88.176 Q 326.755 89.077 324.752 92.043 A 36.589 36.589 0 0 0 324.24 92.823 Q 321.775 96.681 319.433 102.181 A 105.542 105.542 0 0 0 318.01 105.703 A 126.637 126.637 0 0 0 313.905 118.258 A 113.057 113.057 0 0 0 313.18 121.103 Q 311.64 127.683 309.61 129.993 A 6.253 6.253 0 0 1 306.903 131.761 Q 305.342 132.303 303.24 132.303 A 7.706 7.706 0 0 1 299.637 131.486 Q 297.092 130.164 295.75 126.703 A 23.532 23.532 0 0 1 294.709 123.058 A 67.145 67.145 0 0 1 294.511 123.236 A 55.509 55.509 0 0 1 289.03 127.543 Q 282.1 132.303 273.28 132.303 Q 267.808 132.303 264.392 129.877 A 11.014 11.014 0 0 1 262.5 128.173 Q 259.53 124.803 258.983 118.962 A 29.641 29.641 0 0 1 258.86 116.203 Q 258.86 112.57 260.544 103.647 A 262.91 262.91 0 0 1 260.82 102.203 Q 262.539 93.872 262.635 90.412 A 14.16 14.16 0 0 0 262.64 90.023 Q 262.64 87.783 261.1 87.783 A 2.21 2.21 0 0 0 260.059 88.094 Q 258.703 88.834 256.769 91.331 A 38.187 38.187 0 0 0 255.92 92.473 A 47.934 47.934 0 0 0 253.4 96.413 Q 251.3 100.05 249.2 104.863 Q 245.84 112.563 243.74 121.103 A 50.62 50.62 0 0 1 242.946 124.161 Q 242.116 126.961 241.165 128.645 A 7.893 7.893 0 0 1 240.17 130.063 A 6.147 6.147 0 0 1 237.679 131.689 Q 236.685 132.053 235.455 132.201 A 15.045 15.045 0 0 1 233.66 132.303 Q 229.703 132.303 227.441 129.068 A 10.754 10.754 0 0 1 226.73 127.893 Q 224.556 123.741 224.428 117.914 A 33.472 33.472 0 0 1 224.42 117.183 Q 224.42 111.863 225.82 101.783 A 370.142 370.142 0 0 0 226.257 98.157 Q 226.815 93.299 226.917 90.95 A 21.625 21.625 0 0 0 226.94 90.023 Q 226.94 87.783 225.4 87.783 A 2.525 2.525 0 0 0 224.14 88.176 Q 222.595 89.077 220.592 92.043 A 36.589 36.589 0 0 0 220.08 92.823 Q 217.615 96.681 215.273 102.181 A 105.542 105.542 0 0 0 213.85 105.703 A 126.637 126.637 0 0 0 209.745 118.258 A 113.057 113.057 0 0 0 209.02 121.103 Q 207.48 127.683 205.45 129.993 A 6.253 6.253 0 0 1 202.743 131.761 Q 201.182 132.303 199.08 132.303 A 7.706 7.706 0 0 1 195.477 131.486 Q 192.932 130.164 191.59 126.703 A 23.532 23.532 0 0 1 190.549 123.058 A 67.145 67.145 0 0 1 190.351 123.236 A 55.509 55.509 0 0 1 184.87 127.543 Q 177.94 132.303 169.12 132.303 A 13.703 13.703 0 0 1 165.095 131.745 A 10.149 10.149 0 0 1 159.25 127.123 A 18.753 18.753 0 0 1 157.274 122.448 Q 156.632 120.173 156.341 117.43 A 46.271 46.271 0 0 1 156.1 112.563 A 46.905 46.905 0 0 1 154.183 118.586 Q 152.937 121.705 151.329 124.154 A 22.787 22.787 0 0 1 148.96 127.193 Q 144.2 132.303 138.74 132.303 A 11.561 11.561 0 0 1 129.762 128.176 A 17.091 17.091 0 0 1 128.45 126.493 A 22.057 22.057 0 0 1 125.094 118.464 A 31.284 31.284 0 0 1 124.624 115.405 A 516.83 516.83 0 0 0 103.46 119.983 Z M 569.1 13.863 A 2.661 2.661 0 0 0 567.384 14.635 Q 565.448 16.323 563.246 21.698 A 77.121 77.121 0 0 0 561.82 25.483 A 136.2 136.2 0 0 0 558.913 34.985 Q 557.475 40.328 556.186 46.52 A 281.105 281.105 0 0 0 554.68 54.323 A 218.88 218.88 0 0 0 551.769 77.338 A 188.535 188.535 0 0 0 551.32 87.363 Q 561.26 70.983 567.14 54.533 A 112.385 112.385 0 0 0 571.108 40.926 Q 573.02 32.247 573.02 24.503 Q 573.02 13.863 569.1 13.863 Z M 458.5 181.863 A 2.468 2.468 0 0 0 460.366 180.769 Q 462.93 177.622 464.8 165.413 A 235.443 235.443 0 0 0 466.434 151.943 Q 467.583 139.775 468.02 124.463 A 225.201 225.201 0 0 0 461.76 140.643 A 181.703 181.703 0 0 0 458.5 151.203 A 124.996 124.996 0 0 0 456.508 159.482 Q 455.707 163.437 455.331 166.898 A 53.269 53.269 0 0 0 455 172.623 A 30.827 30.827 0 0 0 455.093 175.098 Q 455.289 177.523 455.9 179.118 A 7.982 7.982 0 0 0 456.05 179.483 Q 456.821 181.229 457.78 181.694 A 1.633 1.633 0 0 0 458.5 181.863 Z M 84.7 126.423 L 84.84 125.443 A 124.048 124.048 0 0 0 72.474 130.428 Q 50.96 140.615 50.96 154.003 A 10.306 10.306 0 0 0 51.446 157.23 A 8.644 8.644 0 0 0 53.41 160.513 Q 55.805 163.044 60.14 163.101 A 15.262 15.262 0 0 0 60.34 163.103 A 18.186 18.186 0 0 0 75.873 154.357 Q 81.066 146.826 83.685 132.808 A 124.754 124.754 0 0 0 84.7 126.423 Z M 609.7 104.863 L 614.88 79.103 A 16.39 16.39 0 0 0 605.766 82.167 A 21.372 21.372 0 0 0 604.03 83.513 A 27.593 27.593 0 0 0 598.268 90.483 A 35.368 35.368 0 0 0 596.12 94.783 A 37.932 37.932 0 0 0 593.18 109.623 A 17.262 17.262 0 0 0 593.319 111.887 Q 593.672 114.553 594.93 116.063 A 5.72 5.72 0 0 0 598.83 118.111 A 8.193 8.193 0 0 0 599.76 118.163 A 5.634 5.634 0 0 0 602.724 117.281 Q 603.611 116.741 604.473 115.87 A 14.38 14.38 0 0 0 605.64 114.523 Q 608.44 110.883 609.7 104.863 Z M 485.24 118.863 A 16.937 16.937 0 0 0 491.524 115.976 A 22.924 22.924 0 0 0 494.55 113.333 A 30.237 30.237 0 0 0 499.594 106.276 A 37.444 37.444 0 0 0 501.34 102.413 Q 503.86 95.903 503.86 88.763 A 16.8 16.8 0 0 0 503.704 86.392 Q 503.348 83.901 502.18 82.393 A 5.317 5.317 0 0 0 498.32 80.25 A 6.769 6.769 0 0 0 497.7 80.223 A 6.557 6.557 0 0 0 494.523 81.16 Q 490.917 83.171 486.46 89.496 A 72.519 72.519 0 0 0 485.52 90.863 Q 485.413 95.579 485.388 103.66 A 1697.46 1697.46 0 0 0 485.38 108.923 Q 485.38 113.853 485.298 117.06 A 125.996 125.996 0 0 1 485.24 118.863 Z M 407.82 181.723 A 4.021 4.021 0 0 0 410.016 180.978 Q 412.634 179.264 415.66 173.603 A 50.017 50.017 0 0 0 418.068 168.269 Q 420.224 162.75 422.38 154.569 A 257.779 257.779 0 0 0 424.34 146.583 A 126.104 126.104 0 0 0 418.184 152.113 Q 415.165 155.022 412.828 157.747 A 50.165 50.165 0 0 0 408.73 163.173 Q 405.684 167.896 404.559 171.868 A 16.148 16.148 0 0 0 403.9 176.263 Q 403.9 178.643 404.81 180.183 A 3.011 3.011 0 0 0 407.014 181.659 A 4.842 4.842 0 0 0 407.82 181.723 Z" vector-effect="non-scaling-stroke"/>
  </g>
</svg>
